{"title":"A.Walk.in.the.Woods.2015.BRRip.480p.x264.AAC-VYTO [P2PDL]","uid":13014161,"size":431543152,"categoryP":"video","categoryS":"movies","magnet":"?xt=urn:btih:255fb45c8dfa85d85d325a7f8e07c66de9cca0f7&amp;dn=A.Walk.in.the.Woods.2015.BRRip.480p.x264.AAC-VYTO+%5BP2PDL%5D&amp;tr=udp%3A%2F%2Ftracker.leechers-paradise.org%3A6969&amp;tr=udp%3A%2F%2Fzer0day.ch%3A1337&amp;tr=udp%3A%2F%2Fopen.demonii.com%3A1337&amp;tr=udp%3A%2F%2Ftracker.coppersurfer.tk%3A6969&amp;tr=udp%3A%2F%2Fexodus.desync.com%3A6969","seeders":1,"leechers":1,"uploader":"VYTOP2PDL","files":7,"time":1450276718,"description":"____    ____ ____    ____ .___________.  ______   \r\n     /   /      /   / |           | /  __    \r\n    /   /      /   /  `---|  |----`|  |  |  | \r\n        /     _    _/       |  |     |  |  |  | \r\n       /        |  |         |  |     |  `--'  | \r\n    __/         |__|         |__|      ______/  \r\n                                                  \r\nPresenting Small Encodes with quality for years!\r\n                                                                                                   \r\n                                                                                                   \r\n\r\nA.Walk.in.the.Woods.2015.BRRip.480p.x264.AAC-VYTO\r\n\r\n\r\nGenre: Adventure, Comedy, Drama    \nhttp://www.imdb.com/title/tt1178665/\r\n\r\n\r\nFormat                                   : MPEG-4\r\nFile size                                : 401 MiB\r\nDuration                                 : 1h 44mn\r\nOverall bit rate                         : 536 Kbps\r\n\r\nVideo\r\nFormat                                   : AVC\r\nBit rate                                 : 501 Kbps\r\nWidth                                    : 720 pixels\r\nHeight                                   : 304 pixels\r\nDisplay aspect ratio                     : 2.35:1\r\nFrame rate mode                          : Constant\r\nFrame rate                               : 23.976 fps\r\nBit depth                                : 8 bits\r\nStream size                              : 375 MiB (93%)\r\nWriting library                          : x264\r\n\r\nAudio\r\nFormat                                   : AAC\r\nBit rate mode                            : Variable\r\nMaximum bit rate                         : 50.6 Kbps\r\nChannel(s)                               : 2 channels\r\nChannel positions                        : Front: L R \r\nSampling rate                            : 48.0 KHz \r\nStream size                              : 23.9 MiB (6%)\r\nLanguage                                 : English\r\n\r\nSubtitle                                 : Yes (English)\r\n\r\nScreen Shots: (Click to view)\r\n \nhttp://ititli.com/P6 \nhttp://ititli.com/P8 \nhttp://ititli.com/Pe \nhttp://ititli.com/Pj \nhttp://ititli.com/Pk \nhttp://ititli.com/Po \nhttp://ititli.com/PG \nhttp://ititli.com/PH \nhttp://ititli.com/PM \nhttp://ititli.com/PU \nhttp://ititli.com/Ph \nhttp://ititli.com/Ps\r\n\r\n\r\n----------------------------------------------------------------------------------------------------\r\n\r\n\r\nEncoder Notes: Looking For Early Access To Anything You Can Provide WEBDL, DVDScr, DVDR, BluRay,\r\nDirect Audio, Music Releases and Seedboxes. If You Got anything to offer please contact us.\r\n\r\nSupport us by donating BC - 1FgwdzPsd1y25Gea8wP1qni35uGCtmkRCD\r\n\r\nSend some love!\r\nFind us and join us!","torrent":{"xt":"urn:btih:255fb45c8dfa85d85d325a7f8e07c66de9cca0f7","amp;dn":"A.Walk.in.the.Woods.2015.BRRip.480p.x264.AAC-VYTO+%5BP2PDL%5D","amp;tr":["udp%3A%2F%2Ftracker.leechers-paradise.org%3A6969","udp%3A%2F%2Fzer0day.ch%3A1337","udp%3A%2F%2Fopen.demonii.com%3A1337","udp%3A%2F%2Ftracker.coppersurfer.tk%3A6969","udp%3A%2F%2Fexodus.desync.com%3A6969"],"infoHash":"255fb45c8dfa85d85d325a7f8e07c66de9cca0f7","infoHashBuffer":{"type":"Buffer","data":[37,95,180,92,141,250,133,216,93,50,90,127,142,7,198,109,233,204,160,247]},"announce":[],"urlList":[]}}